<?xml version="1.0" encoding="UTF-8"?>
<svg id="Layer_1" data-name="Layer 1" xmlns="http://www.w3.org/2000/svg" xmlns:xlink="http://www.w3.org/1999/xlink" viewBox="0 0 1445.18 512">
  <defs>
    <style>
      .cls-1 {
        fill: #990e0e;
      }

      .cls-2 {
        fill: url(#linear-gradient);
      }
    </style>
    <linearGradient id="linear-gradient" x1="23.49" y1="216.23" x2="870.89" y2="216.23" gradientUnits="userSpaceOnUse">
      <stop offset="0" stop-color="#8f908f"/>
      <stop offset=".09" stop-color="#919291"/>
      <stop offset=".13" stop-color="#989998"/>
      <stop offset=".16" stop-color="#a5a6a5"/>
      <stop offset=".18" stop-color="#b7b8b7"/>
      <stop offset=".21" stop-color="#cfcfcf"/>
      <stop offset=".23" stop-color="#ebeceb"/>
      <stop offset=".24" stop-color="#fff"/>
      <stop offset=".25" stop-color="#eaeaea"/>
      <stop offset=".28" stop-color="#d4d4d4"/>
      <stop offset=".3" stop-color="#c4c4c3"/>
      <stop offset=".34" stop-color="#b8b8b7"/>
      <stop offset=".38" stop-color="#b1b1b0"/>
      <stop offset=".51" stop-color="#b0b0af"/>
      <stop offset=".75" stop-color="#7a7a7a"/>
      <stop offset=".89" stop-color="#bbb"/>
      <stop offset="1" stop-color="#787879"/>
    </linearGradient>
  </defs>
  <g>
    <path d="M346.2,496.06c-5.62,0-10.39-1.91-14.31-5.72-3.91-3.81-6.89-9.21-8.93-16.19-2.04-6.98-3.06-15.25-3.06-24.82,0-9.03,1.05-17.03,3.15-24.01,2.1-6.98,5.13-12.46,9.06-16.46,3.94-4,8.66-5.99,14.15-5.99,5.98,0,10.91,2.04,14.78,6.12,3.88,4.08,6.76,9.62,8.64,16.62,1.89,7,2.83,14.91,2.83,23.73,0,5.88-.51,11.61-1.52,17.18-1.01,5.57-2.58,10.58-4.69,15.03-2.12,4.45-4.84,7.98-8.17,10.59-3.33,2.61-7.32,3.91-11.95,3.91ZM346.88,488.73c3.73,0,6.84-1.57,9.35-4.72,2.51-3.15,4.39-7.53,5.64-13.14,1.25-5.61,1.88-12.08,1.88-19.41,0-8.45-.67-15.76-1.99-21.93-1.33-6.17-3.35-10.93-6.04-14.29-2.7-3.36-6.11-5.03-10.24-5.03s-7.16,1.68-9.63,5.03c-2.47,3.36-4.28,7.83-5.43,13.42-1.15,5.59-1.73,11.74-1.73,18.45,0,8.32.65,15.6,1.96,21.84,1.3,6.23,3.3,11.09,6,14.57,2.7,3.48,6.11,5.22,10.24,5.22Z"/>
    <path d="M407.91,496.12c-4.64,0-8.51-1.25-11.61-3.76-3.1-2.51-5.44-5.76-7.01-9.76-1.57-4-2.36-8.23-2.36-12.71v-54.3c0-.87-.14-1.52-.42-1.96s-.65-.78-1.1-1.03l-5.78-3.17v-4.53h22.57v4.53l-5.81,3.17c-.41.21-.75.55-1.03,1.03-.28.48-.42,1.13-.42,1.96v47.96c0,2.28.17,4.77.51,7.49.34,2.71,1,5.29,1.98,7.73.98,2.44,2.38,4.44,4.22,6,1.84,1.55,4.24,2.33,7.2,2.33s5.4-.8,7.32-2.39c1.91-1.59,3.42-3.61,4.52-6.06,1.1-2.44,1.88-5,2.32-7.67.44-2.67.66-5.08.66-7.24v-47.84c0-.87-.14-1.51-.42-1.93-.28-.41-.61-.72-.99-.93l-5.81-3.6v-4.53h19.61v4.53l-5.81,3.6c-.41.25-.75.58-1.03.99-.28.42-.42,1.04-.42,1.86v51.26c0,5.22-.69,9.67-2.07,13.36-1.38,3.69-3.15,6.67-5.3,8.95-2.15,2.28-4.43,3.96-6.84,5.03-2.41,1.08-4.64,1.62-6.69,1.62Z"/>
    <path d="M454.23,494.01v-4.66l6.27-3.05c.46-.21.82-.55,1.08-1.02s.4-1.17.4-2.08v-70.82h-12.54c-.41,0-.76.21-1.06.62-.31.41-.49.99-.57,1.74l-1.52,13.36h-4.45v-23.17h48.26v23.17h-4.45l-1.52-13.36c-.1-.83-.29-1.43-.57-1.8-.28-.37-.62-.56-1.03-.56h-12.58v70.82c0,.91.14,1.61.44,2.08.29.48.64.82,1.04,1.02l6.27,3.05v4.66h-23.48Z"/>
    <path d="M496.94,494.01v-4.66l5.85-3.05c.4-.21.75-.55,1.03-1.02s.42-1.17.42-2.08v-67.59c0-.87-.14-1.53-.42-1.99-.28-.45-.62-.79-1.03-.99l-5.85-3.17v-4.53h24.93c2.18,0,4.5.41,6.97,1.24,2.47.83,4.91,2.24,7.32,4.22s4.59,4.7,6.55,8.14c1.96,3.44,3.54,7.72,4.71,12.86,1.18,5.14,1.77,11.29,1.77,18.45,0,10.15-1.23,18.48-3.71,25.01-2.47,6.52-5.78,11.35-9.94,14.48-4.15,3.13-8.77,4.69-13.83,4.69h-24.78ZM512.21,412.37v74.18h9.69c6.36,0,11.02-3.05,13.98-9.13,2.96-6.09,4.45-14.66,4.45-25.72,0-8.12-.86-15.11-2.57-20.97s-4.12-10.39-7.24-13.57c-3.12-3.19-6.78-4.78-10.98-4.78h-7.33Z"/>
    <path d="M583.46,496.06c-5.62,0-10.39-1.91-14.31-5.72-3.91-3.81-6.89-9.21-8.93-16.19-2.04-6.98-3.06-15.25-3.06-24.82,0-9.03,1.05-17.03,3.15-24.01,2.1-6.98,5.13-12.46,9.06-16.46,3.94-4,8.66-5.99,14.15-5.99,5.98,0,10.91,2.04,14.78,6.12,3.88,4.08,6.76,9.62,8.64,16.62,1.89,7,2.83,14.91,2.83,23.73,0,5.88-.51,11.61-1.52,17.18-1.01,5.57-2.58,10.58-4.69,15.03-2.12,4.45-4.84,7.98-8.17,10.59-3.33,2.61-7.32,3.91-11.95,3.91ZM584.14,488.73c3.73,0,6.84-1.57,9.35-4.72,2.51-3.15,4.39-7.53,5.64-13.14,1.25-5.61,1.88-12.08,1.88-19.41,0-8.45-.67-15.76-1.99-21.93-1.33-6.17-3.35-10.93-6.04-14.29-2.7-3.36-6.11-5.03-10.24-5.03s-7.16,1.68-9.63,5.03c-2.47,3.36-4.28,7.83-5.43,13.42-1.15,5.59-1.73,11.74-1.73,18.45,0,8.32.65,15.6,1.96,21.84,1.3,6.23,3.3,11.09,6,14.57,2.7,3.48,6.11,5.22,10.24,5.22Z"/>
    <path d="M644.07,496.06c-5.62,0-10.39-1.91-14.31-5.72-3.91-3.81-6.89-9.21-8.93-16.19-2.04-6.98-3.06-15.25-3.06-24.82,0-9.03,1.05-17.03,3.15-24.01,2.1-6.98,5.13-12.46,9.06-16.46,3.94-4,8.66-5.99,14.15-5.99,5.98,0,10.91,2.04,14.78,6.12,3.88,4.08,6.76,9.62,8.64,16.62,1.89,7,2.83,14.91,2.83,23.73,0,5.88-.51,11.61-1.52,17.18-1.01,5.57-2.58,10.58-4.69,15.03-2.12,4.45-4.84,7.98-8.17,10.59-3.33,2.61-7.32,3.91-11.95,3.91ZM644.75,488.73c3.73,0,6.84-1.57,9.35-4.72,2.51-3.15,4.39-7.53,5.64-13.14,1.25-5.61,1.88-12.08,1.88-19.41,0-8.45-.67-15.76-1.99-21.93-1.33-6.17-3.35-10.93-6.04-14.29-2.7-3.36-6.11-5.03-10.24-5.03s-7.16,1.68-9.63,5.03c-2.47,3.36-4.28,7.83-5.43,13.42-1.15,5.59-1.73,11.74-1.73,18.45,0,8.32.65,15.6,1.96,21.84,1.3,6.23,3.3,11.09,6,14.57,2.7,3.48,6.11,5.22,10.24,5.22Z"/>
    <path d="M678.6,494.01v-4.66l5.85-3.05c.43-.21.78-.55,1.04-1.02s.4-1.17.4-2.08v-67.59c0-.87-.14-1.53-.42-1.99-.28-.45-.62-.79-1.03-.99l-5.85-3.17v-4.53h22.27c4.15,0,7.54.66,10.16,1.99,2.62,1.33,4.65,3.08,6.08,5.28,1.43,2.2,2.42,4.62,2.96,7.27.55,2.65.82,5.32.82,8.01,0,4.84-.66,9-1.97,12.46-1.32,3.46-2.95,6.2-4.9,8.23-1.95,2.03-3.89,3.4-5.81,4.1l-6.16,4.1-8.74-2.92.34-6.65c.23.12.77.26,1.64.4.86.14,1.78.26,2.75.34.98.08,1.74.12,2.3.12,2.74,0,4.99-.82,6.76-2.45,1.77-1.64,3.1-3.8,3.97-6.49.87-2.69,1.31-5.57,1.31-8.64,0-6.21-1.09-10.72-3.27-13.51-2.18-2.8-5.37-4.19-9.58-4.19h-5.66v70.82c0,.91.14,1.61.42,2.08.28.48.62.82,1.03,1.02l6,3.05v4.66h-22.72ZM731.61,494.01h-9.2c-1.7,0-2.96-.24-3.8-.71-.84-.48-1.54-1.29-2.13-2.45s-1.33-2.77-2.24-4.85l-13.64-30.75,7.71-3.91,14.32,31.06c.28.66.73,1.46,1.35,2.39.62.93,1.21,1.52,1.77,1.77l5.85,2.8v4.66Z"/>
    <path d="M760.34,490.47l-.23-23.8h4.48l1.6,12.86c.08.58.31,1.16.7,1.74.39.58.73,1.04,1.01,1.37.96.99,2.01,1.95,3.15,2.86,1.14.91,2.35,1.65,3.63,2.2,1.28.56,2.59.84,3.93.84,3.95,0,7.05-1.41,9.31-4.22,2.25-2.82,3.38-6.67,3.38-11.56,0-3.68-.67-6.73-2.02-9.13s-3.14-4.37-5.39-5.9c-2.18-1.49-4.33-2.76-6.44-3.82-2.12-1.05-4.19-2.27-6.21-3.63-3.06-2.07-5.47-4.99-7.22-8.76s-2.62-8.32-2.62-13.67c0-4.8.82-9.08,2.45-12.83,1.63-3.75,3.84-6.71,6.63-8.88,2.79-2.17,5.9-3.26,9.35-3.26,2.08,0,4.06.21,5.95.62,1.89.41,3.69.93,5.4,1.55,1.71.62,3.34,1.24,4.88,1.87v22.8h-4.45l-1.52-12.18c-.08-.58-.31-1.15-.68-1.71-.38-.56-.72-1-1.03-1.34-.58-.7-1.3-1.35-2.15-1.96-.85-.6-1.79-1.09-2.83-1.46-1.04-.37-2.15-.56-3.34-.56-3.6,0-6.39,1.24-8.38,3.73-1.99,2.49-2.98,5.53-2.98,9.13,0,3.23.54,6.24,1.62,9.04,1.08,2.8,3.15,5.13,6.21,6.99,2.03,1.2,4.02,2.34,5.97,3.42,1.95,1.08,4.08,2.4,6.38,3.98,1.7,1.16,3.33,2.67,4.88,4.53,1.56,1.86,2.84,4.26,3.84,7.18,1,2.92,1.5,6.55,1.5,10.9s-.72,8.81-2.16,12.89c-1.45,4.08-3.73,7.4-6.84,9.97-3.12,2.57-7.2,3.85-12.24,3.85-1.75,0-3.6-.29-5.55-.87-1.95-.58-3.94-1.3-5.97-2.17-2.03-.87-4.03-1.74-6-2.61Z"/>
    <path d="M818.02,494.01v-4.66l6.27-3.05c.46-.21.82-.55,1.08-1.02s.4-1.17.4-2.08v-70.82h-12.54c-.41,0-.76.21-1.06.62-.31.41-.49.99-.57,1.74l-1.52,13.36h-4.45v-23.17h48.26v23.17h-4.45l-1.52-13.36c-.1-.83-.29-1.43-.57-1.8-.28-.37-.62-.56-1.03-.56h-12.58v70.82c0,.91.14,1.61.44,2.08.29.48.64.82,1.04,1.02l6.27,3.05v4.66h-23.48Z"/>
    <path d="M860.73,494.01v-4.66l5.85-3.05c.43-.21.78-.55,1.04-1.02s.4-1.17.4-2.08v-67.59c0-.87-.14-1.53-.42-1.99-.28-.45-.62-.79-1.03-.99l-5.85-3.17v-4.53h22.27c4.15,0,7.54.66,10.16,1.99,2.62,1.33,4.65,3.08,6.08,5.28,1.43,2.2,2.42,4.62,2.96,7.27.55,2.65.82,5.32.82,8.01,0,4.84-.66,9-1.97,12.46-1.32,3.46-2.95,6.2-4.9,8.23-1.95,2.03-3.89,3.4-5.81,4.1l-6.16,4.1-8.74-2.92.34-6.65c.23.12.77.26,1.64.4.86.14,1.78.26,2.75.34.98.08,1.74.12,2.3.12,2.74,0,4.99-.82,6.76-2.45,1.77-1.64,3.1-3.8,3.97-6.49.87-2.69,1.31-5.57,1.31-8.64,0-6.21-1.09-10.72-3.27-13.51s-5.37-4.19-9.58-4.19h-5.66v70.82c0,.91.14,1.61.42,2.08s.62.82,1.03,1.02l6,3.05v4.66h-22.72ZM913.74,494.01h-9.2c-1.7,0-2.96-.24-3.8-.71-.84-.48-1.54-1.29-2.13-2.45-.58-1.16-1.33-2.77-2.24-4.85l-13.64-30.75,7.71-3.91,14.32,31.06c.28.66.73,1.46,1.35,2.39.62.93,1.21,1.52,1.77,1.77l5.85,2.8v4.66Z"/>
    <path d="M943.72,496.12c-4.64,0-8.51-1.25-11.61-3.76-3.1-2.51-5.44-5.76-7.01-9.76-1.57-4-2.36-8.23-2.36-12.71v-54.3c0-.87-.14-1.52-.42-1.96s-.65-.78-1.1-1.03l-5.78-3.17v-4.53h22.57v4.53l-5.81,3.17c-.41.21-.75.55-1.03,1.03-.28.48-.42,1.13-.42,1.96v47.96c0,2.28.17,4.77.51,7.49.34,2.71,1,5.29,1.98,7.73.98,2.44,2.38,4.44,4.22,6,1.84,1.55,4.24,2.33,7.2,2.33s5.4-.8,7.32-2.39c1.91-1.59,3.42-3.61,4.52-6.06,1.1-2.44,1.88-5,2.32-7.67.44-2.67.66-5.08.66-7.24v-47.84c0-.87-.14-1.51-.42-1.93-.28-.41-.61-.72-.99-.93l-5.81-3.6v-4.53h19.61v4.53l-5.81,3.6c-.41.25-.75.58-1.03.99-.28.42-.42,1.04-.42,1.86v51.26c0,5.22-.69,9.67-2.07,13.36-1.38,3.69-3.15,6.67-5.3,8.95-2.15,2.28-4.43,3.96-6.84,5.03-2.41,1.08-4.64,1.62-6.69,1.62Z"/>
    <path d="M1023.78,474.13h1.94v8.26c-1.47,1.99-3.23,4.03-5.28,6.12-2.05,2.09-4.31,3.85-6.77,5.28-2.46,1.43-5.04,2.14-7.75,2.14-5.4,0-10.11-1.81-14.16-5.44-4.04-3.62-7.17-8.89-9.4-15.81-2.23-6.92-3.35-15.26-3.35-25.04s1.17-17.66,3.52-24.66c2.34-7,5.55-12.41,9.63-16.25,4.08-3.83,8.72-5.75,13.91-5.75,1.88,0,3.95.26,6.23.78,2.28.52,4.5,1.13,6.67,1.83,2.16.71,3.98,1.37,5.45,1.99v22.74h-4.45l-1.48-12.74c-.08-.66-.31-1.22-.68-1.68-.38-.45-.79-.85-1.22-1.18-1.6-1.33-3.32-2.35-5.17-3.08-1.85-.72-3.86-1.09-6.04-1.09-5.19,0-9.42,2.99-12.69,8.98-3.27,5.99-4.9,15.11-4.9,27.37,0,12.96,1.75,22.75,5.24,29.36,3.5,6.61,8.55,9.91,15.16,9.91,2.2,0,4.18-.56,5.93-1.68,1.75-1.12,3.4-2.59,4.94-4.41,1.54-1.82,3.12-3.81,4.71-5.97Z"/>
    <path d="M1044.23,494.01v-4.66l6.27-3.05c.46-.21.82-.55,1.08-1.02s.4-1.17.4-2.08v-70.82h-12.54c-.41,0-.76.21-1.06.62-.31.41-.49.99-.57,1.74l-1.52,13.36h-4.45v-23.17h48.26v23.17h-4.45l-1.52-13.36c-.1-.83-.29-1.43-.57-1.8-.28-.37-.62-.56-1.03-.56h-12.58v70.82c0,.91.14,1.61.44,2.08.29.48.64.82,1.04,1.02l6.27,3.05v4.66h-23.48Z"/>
    <path d="M1114.11,496.12c-4.64,0-8.51-1.25-11.61-3.76-3.1-2.51-5.44-5.76-7.01-9.76-1.57-4-2.36-8.23-2.36-12.71v-54.3c0-.87-.14-1.52-.42-1.96s-.65-.78-1.1-1.03l-5.78-3.17v-4.53h22.57v4.53l-5.81,3.17c-.41.21-.75.55-1.03,1.03-.28.48-.42,1.13-.42,1.96v47.96c0,2.28.17,4.77.51,7.49.34,2.71,1,5.29,1.98,7.73.98,2.44,2.38,4.44,4.22,6,1.84,1.55,4.24,2.33,7.2,2.33s5.4-.8,7.32-2.39c1.91-1.59,3.42-3.61,4.52-6.06,1.1-2.44,1.88-5,2.32-7.67.44-2.67.66-5.08.66-7.24v-47.84c0-.87-.14-1.51-.42-1.93-.28-.41-.61-.72-.99-.93l-5.81-3.6v-4.53h19.61v4.53l-5.81,3.6c-.41.25-.75.58-1.03.99-.28.42-.42,1.04-.42,1.86v51.26c0,5.22-.69,9.67-2.07,13.36-1.38,3.69-3.15,6.67-5.3,8.95-2.15,2.28-4.43,3.96-6.84,5.03-2.41,1.08-4.64,1.62-6.69,1.62Z"/>
    <path d="M1149.63,494.01v-4.66l5.85-3.05c.43-.21.78-.55,1.04-1.02s.4-1.17.4-2.08v-67.59c0-.87-.14-1.53-.42-1.99-.28-.45-.62-.79-1.03-.99l-5.85-3.17v-4.53h22.27c4.15,0,7.54.66,10.16,1.99,2.62,1.33,4.65,3.08,6.08,5.28,1.43,2.2,2.42,4.62,2.96,7.27.55,2.65.82,5.32.82,8.01,0,4.84-.66,9-1.97,12.46-1.32,3.46-2.95,6.2-4.9,8.23-1.95,2.03-3.89,3.4-5.81,4.1l-6.16,4.1-8.74-2.92.34-6.65c.23.12.77.26,1.64.4.86.14,1.78.26,2.75.34.98.08,1.74.12,2.3.12,2.74,0,4.99-.82,6.76-2.45,1.77-1.64,3.1-3.8,3.97-6.49.87-2.69,1.31-5.57,1.31-8.64,0-6.21-1.09-10.72-3.27-13.51s-5.37-4.19-9.58-4.19h-5.66v70.82c0,.91.14,1.61.42,2.08s.62.82,1.03,1.02l6,3.05v4.66h-22.72ZM1202.64,494.01h-9.2c-1.7,0-2.96-.24-3.8-.71-.84-.48-1.54-1.29-2.13-2.45-.58-1.16-1.33-2.77-2.24-4.85l-13.64-30.75,7.71-3.91,14.32,31.06c.28.66.73,1.46,1.35,2.39.62.93,1.21,1.52,1.77,1.77l5.85,2.8v4.66Z"/>
    <path d="M1206.21,494.01v-4.66l5.85-3.05c.43-.21.78-.55,1.04-1.02.27-.48.4-1.17.4-2.08v-67.59c0-.87-.14-1.53-.42-1.99-.28-.45-.62-.79-1.03-.99l-5.85-3.17v-4.53h42.29v22.12h-4.48l-1.48-12.24c-.1-.75-.29-1.32-.57-1.71-.28-.39-.63-.59-1.06-.59h-19.42v31.37h11.67c.5,0,.88-.18,1.12-.53.24-.35.41-.92.51-1.71l1.37-9.82h3.65v31.75h-3.65l-1.37-9.75c-.1-.79-.27-1.38-.51-1.77-.24-.39-.61-.59-1.12-.59h-11.67v34.98h22.38c.38,0,.72-.21,1.01-.62.29-.41.47-.99.55-1.74l1.52-13.67h4.45v23.61h-45.18Z"/>
    <path d="M1260.89,490.47l-.23-23.8h4.48l1.6,12.86c.08.58.31,1.16.7,1.74.39.58.73,1.04,1.01,1.37.96.99,2.01,1.95,3.15,2.86,1.14.91,2.35,1.65,3.63,2.2,1.28.56,2.59.84,3.93.84,3.95,0,7.05-1.41,9.31-4.22,2.25-2.82,3.38-6.67,3.38-11.56,0-3.68-.67-6.73-2.02-9.13-1.34-2.4-3.14-4.37-5.39-5.9-2.18-1.49-4.33-2.76-6.44-3.82-2.12-1.05-4.19-2.27-6.21-3.63-3.06-2.07-5.47-4.99-7.22-8.76-1.75-3.77-2.62-8.32-2.62-13.67,0-4.8.82-9.08,2.45-12.83,1.63-3.75,3.84-6.71,6.63-8.88,2.79-2.17,5.9-3.26,9.35-3.26,2.08,0,4.06.21,5.95.62,1.89.41,3.69.93,5.4,1.55,1.71.62,3.34,1.24,4.88,1.87v22.8h-4.45l-1.52-12.18c-.08-.58-.31-1.15-.68-1.71-.38-.56-.72-1-1.03-1.34-.58-.7-1.3-1.35-2.15-1.96-.85-.6-1.79-1.09-2.83-1.46-1.04-.37-2.15-.56-3.34-.56-3.6,0-6.39,1.24-8.38,3.73-1.99,2.49-2.98,5.53-2.98,9.13,0,3.23.54,6.24,1.62,9.04,1.08,2.8,3.15,5.13,6.21,6.99,2.03,1.2,4.02,2.34,5.97,3.42,1.95,1.08,4.08,2.4,6.38,3.98,1.7,1.16,3.33,2.67,4.88,4.53,1.56,1.86,2.84,4.26,3.84,7.18,1,2.92,1.5,6.55,1.5,10.9s-.72,8.81-2.16,12.89c-1.45,4.08-3.73,7.4-6.84,9.97-3.12,2.57-7.2,3.85-12.24,3.85-1.75,0-3.6-.29-5.55-.87-1.95-.58-3.94-1.3-5.97-2.17s-4.03-1.74-6-2.61Z"/>
  </g>
  <g>
    <path d="M296,331.61v19.17c0,23.09-16.1,36.28-47.16,36.28s-47.16-13.19-47.16-36.28v-75.03c0-23.09,16.1-36.28,47.16-36.28s47.16,13.19,47.16,36.28v14.02h-29.9v-15.46c0-10.31-6.33-14.23-16.39-14.23s-16.39,3.92-16.39,14.23v77.92c0,10.31,6.33,14.02,16.39,14.02s16.39-3.71,16.39-14.02v-20.61h29.9Z"/>
    <path d="M312.67,275.75c0-23.09,16.97-36.28,48.02-36.28s48.02,13.19,48.02,36.28v75.03c0,23.09-16.96,36.28-48.02,36.28s-48.02-13.19-48.02-36.28v-75.03ZM344.3,352.22c0,10.31,6.33,14.22,16.39,14.22s16.39-3.92,16.39-14.22v-77.92c0-10.31-6.33-14.23-16.39-14.23s-16.39,3.92-16.39,14.23v77.92Z"/>
    <path d="M495.26,385.41c-1.72-3.71-2.87-5.98-2.87-17.73v-22.67c0-13.4-6.33-18.35-20.7-18.35h-10.93v58.75h-31.63v-144.3h47.73c32.78,0,46.87,10.93,46.87,33.19v11.34c0,14.84-6.61,24.53-20.7,29.27,15.82,4.74,20.99,15.67,20.99,30.71v22.26c0,7.01.29,12.16,3.45,17.52h-32.2ZM460.76,261.73v44.32h12.36c11.79,0,18.98-3.71,18.98-15.25v-14.22c0-10.31-4.89-14.84-16.1-14.84h-15.24Z"/>
    <path d="M572.89,280.9v104.51h-28.47v-144.3h39.68l32.49,86.37v-86.37h28.18v144.3h-32.49l-39.39-104.51Z"/>
    <path d="M699.12,301.93h43.42v20.61h-43.42v42.26h54.63v20.61h-86.26v-144.3h86.26v20.61h-54.63v40.2Z"/>
    <path d="M839.44,385.41c-1.72-3.71-2.87-5.98-2.87-17.73v-22.67c0-13.4-6.33-18.35-20.7-18.35h-10.93v58.75h-31.63v-144.3h47.73c32.78,0,46.87,10.93,46.87,33.19v11.34c0,14.84-6.61,24.53-20.7,29.27,15.82,4.74,20.99,15.67,20.99,30.71v22.26c0,7.01.29,12.16,3.45,17.52h-32.2ZM804.94,261.73v44.32h12.36c11.79,0,18.98-3.71,18.98-15.25v-14.22c0-10.31-4.89-14.84-16.1-14.84h-15.24Z"/>
    <path d="M931.45,239.47c30.77,0,46.58,13.19,46.58,36.28v4.54h-29.9v-5.98c0-10.31-5.75-14.23-15.82-14.23s-15.81,3.92-15.81,14.23c0,29.68,61.82,35.25,61.82,76.48,0,23.09-16.1,36.28-47.16,36.28s-47.15-13.19-47.15-36.28v-8.86h29.9v10.31c0,10.31,6.33,14.02,16.39,14.02s16.39-3.71,16.39-14.02c0-29.69-61.82-35.25-61.82-76.48,0-23.09,15.81-36.28,46.58-36.28Z"/>
    <path d="M987.23,241.12h97.76v20.61h-33.07v123.68h-31.63v-123.68h-33.06v-20.61Z"/>
    <path d="M1096.21,275.75c0-23.09,16.97-36.28,48.02-36.28s48.02,13.19,48.02,36.28v75.03c0,23.09-16.96,36.28-48.02,36.28s-48.02-13.19-48.02-36.28v-75.03ZM1127.84,352.22c0,10.31,6.33,14.22,16.39,14.22s16.39-3.92,16.39-14.22v-77.92c0-10.31-6.33-14.23-16.39-14.23s-16.39,3.92-16.39,14.23v77.92Z"/>
    <path d="M1240.84,280.9v104.51h-28.47v-144.3h39.68l32.49,86.37v-86.37h28.18v144.3h-32.49l-39.39-104.51Z"/>
    <path d="M1367.06,301.93h43.42v20.61h-43.42v42.26h54.63v20.61h-86.26v-144.3h86.26v20.61h-54.63v40.2Z"/>
  </g>
  <g>
    <path class="cls-1" d="M290.16,325.89v19.17c0,23.09-16.1,36.28-47.16,36.28s-47.16-13.19-47.16-36.28v-75.03c0-23.09,16.1-36.28,47.16-36.28s47.16,13.19,47.16,36.28v14.02h-29.91v-15.46c0-10.3-6.33-14.22-16.39-14.22s-16.39,3.92-16.39,14.22v77.92c0,10.31,6.32,14.02,16.39,14.02s16.39-3.71,16.39-14.02v-20.61h29.91Z"/>
    <path class="cls-1" d="M306.84,270.03c0-23.09,16.97-36.28,48.02-36.28s48.02,13.19,48.02,36.28v75.03c0,23.09-16.97,36.28-48.02,36.28s-48.02-13.19-48.02-36.28v-75.03ZM338.47,346.5c0,10.31,6.32,14.22,16.39,14.22s16.39-3.91,16.39-14.22v-77.92c0-10.3-6.33-14.22-16.39-14.22s-16.39,3.92-16.39,14.22v77.92Z"/>
    <path class="cls-1" d="M489.42,379.69c-1.72-3.71-2.88-5.98-2.88-17.73v-22.67c0-13.4-6.33-18.35-20.7-18.35h-10.93v58.75h-31.63v-144.29h47.73c32.78,0,46.87,10.92,46.87,33.19v11.34c0,14.84-6.61,24.53-20.7,29.27,15.82,4.74,20.99,15.67,20.99,30.71v22.26c0,7.01.29,12.16,3.45,17.52h-32.2ZM454.92,256.01v44.32h12.36c11.79,0,18.98-3.71,18.98-15.26v-14.22c0-10.3-4.89-14.84-16.1-14.84h-15.24Z"/>
    <path class="cls-1" d="M567.06,275.18v104.51h-28.47v-144.29h39.68l32.49,86.37v-86.37h28.18v144.29h-32.49l-39.39-104.51Z"/>
    <path class="cls-1" d="M693.28,296.21h43.42v20.61h-43.42v42.26h54.63v20.61h-86.26v-144.29h86.26v20.61h-54.63v40.2Z"/>
    <path class="cls-1" d="M833.6,379.69c-1.73-3.71-2.88-5.98-2.88-17.73v-22.67c0-13.4-6.33-18.35-20.7-18.35h-10.93v58.75h-31.63v-144.29h47.73c32.78,0,46.87,10.92,46.87,33.19v11.34c0,14.84-6.61,24.53-20.71,29.27,15.82,4.74,20.99,15.67,20.99,30.71v22.26c0,7.01.28,12.16,3.45,17.52h-32.2ZM799.09,256.01v44.32h12.36c11.79,0,18.98-3.71,18.98-15.26v-14.22c0-10.3-4.89-14.84-16.1-14.84h-15.24Z"/>
    <path class="cls-1" d="M925.61,233.75c30.77,0,46.58,13.19,46.58,36.28v4.53h-29.9v-5.98c0-10.3-5.75-14.22-15.82-14.22s-15.82,3.92-15.82,14.22c0,29.68,61.82,35.25,61.82,76.47,0,23.09-16.1,36.28-47.15,36.28s-47.16-13.19-47.16-36.28v-8.86h29.9v10.3c0,10.31,6.33,14.02,16.39,14.02s16.39-3.71,16.39-14.02c0-29.68-61.82-35.25-61.82-76.47,0-23.09,15.82-36.28,46.58-36.28Z"/>
    <path class="cls-1" d="M981.39,235.4h97.76v20.61h-33.07v123.68h-31.63v-123.68h-33.07v-20.61Z"/>
    <path class="cls-1" d="M1090.37,270.03c0-23.09,16.97-36.28,48.02-36.28s48.02,13.19,48.02,36.28v75.03c0,23.09-16.96,36.28-48.02,36.28s-48.02-13.19-48.02-36.28v-75.03ZM1122,346.5c0,10.31,6.33,14.22,16.39,14.22s16.39-3.91,16.39-14.22v-77.92c0-10.3-6.33-14.22-16.39-14.22s-16.39,3.92-16.39,14.22v77.92Z"/>
    <path class="cls-1" d="M1235,275.18v104.51h-28.47v-144.29h39.68l32.49,86.37v-86.37h28.18v144.29h-32.49l-39.39-104.51Z"/>
    <path class="cls-1" d="M1361.23,296.21h43.42v20.61h-43.42v42.26h54.63v20.61h-86.26v-144.29h86.26v20.61h-54.63v40.2Z"/>
  </g>
  <g>
    <path class="cls-1" d="M341.69,491.31c-5.62,0-10.39-1.91-14.31-5.72-3.91-3.81-6.89-9.2-8.93-16.18-2.04-6.98-3.06-15.25-3.06-24.82,0-9.03,1.05-17.03,3.15-24.01,2.1-6.98,5.12-12.47,9.06-16.46,3.94-4,8.66-6,14.15-6,5.98,0,10.9,2.04,14.78,6.12,3.87,4.08,6.76,9.62,8.65,16.62,1.89,7,2.83,14.91,2.83,23.73,0,5.88-.51,11.6-1.52,17.17-1.01,5.57-2.58,10.58-4.69,15.04s-4.84,7.98-8.17,10.59c-3.33,2.61-7.31,3.91-11.95,3.91ZM342.37,483.98c3.72,0,6.84-1.57,9.35-4.72,2.51-3.15,4.39-7.53,5.64-13.14,1.25-5.61,1.88-12.08,1.88-19.41,0-8.45-.66-15.76-1.99-21.93-1.33-6.17-3.35-10.94-6.04-14.29-2.7-3.36-6.11-5.03-10.24-5.03s-7.16,1.68-9.63,5.03-4.28,7.83-5.43,13.42c-1.15,5.59-1.73,11.74-1.73,18.45,0,8.33.65,15.61,1.96,21.84,1.31,6.23,3.31,11.09,6,14.57,2.7,3.47,6.11,5.21,10.24,5.21Z"/>
    <path class="cls-1" d="M403.39,491.37c-4.63,0-8.51-1.25-11.61-3.76-3.1-2.5-5.44-5.75-7.01-9.75-1.57-3.99-2.36-8.23-2.36-12.7v-54.3c0-.87-.14-1.52-.42-1.96-.28-.44-.65-.78-1.1-1.02l-5.78-3.17v-4.53h22.57v4.53l-5.81,3.17c-.41.21-.75.55-1.03,1.02-.28.48-.42,1.13-.42,1.96v47.96c0,2.28.17,4.77.51,7.49.34,2.71,1,5.29,1.98,7.73s2.38,4.44,4.22,5.99c1.84,1.55,4.24,2.33,7.2,2.33s5.4-.8,7.32-2.39c1.91-1.6,3.42-3.61,4.52-6.06s1.88-5,2.32-7.67c.44-2.67.66-5.08.66-7.24v-47.84c0-.87-.14-1.51-.42-1.93-.28-.41-.61-.72-.99-.93l-5.81-3.6v-4.53h19.61v4.53l-5.81,3.6c-.41.25-.75.58-1.03,1-.28.42-.42,1.04-.42,1.86v51.26c0,5.22-.69,9.67-2.07,13.36s-3.15,6.67-5.3,8.95-4.43,3.95-6.84,5.03c-2.41,1.08-4.64,1.62-6.69,1.62Z"/>
    <path class="cls-1" d="M449.71,489.26v-4.66l6.27-3.05c.46-.2.82-.54,1.08-1.02.27-.48.4-1.17.4-2.08v-70.83h-12.54c-.4,0-.76.21-1.06.62s-.49.99-.57,1.74l-1.52,13.36h-4.45v-23.17h48.26v23.17h-4.45l-1.52-13.36c-.1-.83-.29-1.43-.57-1.8-.28-.37-.62-.56-1.03-.56h-12.58v70.83c0,.91.15,1.6.44,2.08.29.48.64.82,1.04,1.02l6.27,3.05v4.66h-23.48Z"/>
    <path class="cls-1" d="M492.43,489.26v-4.66l5.85-3.05c.41-.2.75-.54,1.03-1.02.28-.48.42-1.17.42-2.08v-67.6c0-.87-.14-1.53-.42-1.99-.28-.46-.62-.78-1.03-.99l-5.85-3.17v-4.53h24.93c2.18,0,4.5.42,6.97,1.24,2.47.83,4.91,2.24,7.32,4.22,2.41,1.99,4.59,4.7,6.55,8.14,1.96,3.43,3.53,7.72,4.71,12.86,1.18,5.13,1.77,11.28,1.77,18.45,0,10.15-1.23,18.48-3.7,25-2.47,6.53-5.78,11.35-9.94,14.48-4.15,3.13-8.77,4.69-13.83,4.69h-24.77ZM507.7,407.63v74.18h9.69c6.36,0,11.02-3.04,13.98-9.13,2.96-6.09,4.44-14.66,4.44-25.72,0-8.12-.85-15.11-2.57-20.97-1.71-5.86-4.12-10.38-7.24-13.57-3.12-3.19-6.78-4.79-10.98-4.79h-7.33Z"/>
    <path class="cls-1" d="M578.95,491.31c-5.62,0-10.39-1.91-14.31-5.72-3.91-3.81-6.89-9.2-8.93-16.18-2.04-6.98-3.06-15.25-3.06-24.82,0-9.03,1.05-17.03,3.15-24.01,2.1-6.98,5.12-12.47,9.06-16.46,3.94-4,8.66-6,14.15-6,5.98,0,10.9,2.04,14.78,6.12,3.87,4.08,6.76,9.62,8.65,16.62,1.89,7,2.83,14.91,2.83,23.73,0,5.88-.51,11.6-1.52,17.17-1.01,5.57-2.58,10.58-4.69,15.04-2.12,4.45-4.84,7.98-8.17,10.59-3.33,2.61-7.31,3.91-11.95,3.91ZM579.63,483.98c3.72,0,6.84-1.57,9.35-4.72,2.51-3.15,4.39-7.53,5.64-13.14,1.25-5.61,1.88-12.08,1.88-19.41,0-8.45-.66-15.76-1.99-21.93-1.33-6.17-3.35-10.94-6.04-14.29-2.7-3.36-6.11-5.03-10.24-5.03s-7.16,1.68-9.63,5.03-4.28,7.83-5.43,13.42c-1.15,5.59-1.73,11.74-1.73,18.45,0,8.33.65,15.61,1.96,21.84,1.31,6.23,3.31,11.09,6,14.57,2.7,3.47,6.11,5.21,10.24,5.21Z"/>
    <path class="cls-1" d="M639.55,491.31c-5.62,0-10.39-1.91-14.31-5.72-3.91-3.81-6.89-9.2-8.93-16.18-2.04-6.98-3.06-15.25-3.06-24.82,0-9.03,1.05-17.03,3.15-24.01,2.1-6.98,5.12-12.47,9.06-16.46,3.94-4,8.66-6,14.15-6,5.98,0,10.9,2.04,14.78,6.12,3.87,4.08,6.76,9.62,8.65,16.62,1.89,7,2.83,14.91,2.83,23.73,0,5.88-.51,11.6-1.52,17.17-1.01,5.57-2.58,10.58-4.69,15.04-2.12,4.45-4.84,7.98-8.17,10.59-3.33,2.61-7.31,3.91-11.95,3.91ZM640.24,483.98c3.72,0,6.84-1.57,9.35-4.72,2.51-3.15,4.39-7.53,5.64-13.14,1.25-5.61,1.88-12.08,1.88-19.41,0-8.45-.66-15.76-1.99-21.93-1.33-6.17-3.35-10.94-6.04-14.29-2.7-3.36-6.11-5.03-10.24-5.03s-7.16,1.68-9.63,5.03-4.28,7.83-5.43,13.42c-1.15,5.59-1.73,11.74-1.73,18.45,0,8.33.65,15.61,1.96,21.84,1.31,6.23,3.31,11.09,6,14.57,2.7,3.47,6.11,5.21,10.24,5.21Z"/>
    <path class="cls-1" d="M674.09,489.26v-4.66l5.85-3.05c.43-.2.78-.54,1.05-1.02.27-.48.4-1.17.4-2.08v-67.6c0-.87-.14-1.53-.42-1.99-.28-.46-.62-.78-1.03-.99l-5.85-3.17v-4.53h22.27c4.15,0,7.54.66,10.17,1.99,2.62,1.33,4.65,3.09,6.08,5.28s2.42,4.62,2.97,7.27c.54,2.65.82,5.32.82,8.01,0,4.85-.66,9-1.98,12.46-1.32,3.46-2.95,6.2-4.9,8.23-1.95,2.03-3.89,3.4-5.81,4.1l-6.15,4.1-8.74-2.92.34-6.65c.23.12.77.26,1.63.4.86.14,1.78.26,2.76.34.97.08,1.74.12,2.3.12,2.74,0,4.99-.82,6.76-2.46,1.77-1.64,3.1-3.8,3.97-6.49.87-2.69,1.31-5.57,1.31-8.64,0-6.21-1.09-10.72-3.27-13.51-2.18-2.8-5.37-4.19-9.58-4.19h-5.66v70.83c0,.91.14,1.6.42,2.08.28.48.62.82,1.03,1.02l6,3.05v4.66h-22.72ZM727.1,489.26h-9.2c-1.7,0-2.96-.24-3.8-.72-.84-.48-1.55-1.29-2.13-2.45-.58-1.16-1.33-2.78-2.24-4.85l-13.64-30.75,7.71-3.91,14.33,31.06c.28.66.73,1.46,1.35,2.39.62.93,1.21,1.52,1.77,1.77l5.85,2.8v4.66Z"/>
    <path class="cls-1" d="M755.83,485.72l-.23-23.79h4.48l1.6,12.86c.08.58.31,1.16.7,1.74.39.58.73,1.04,1.01,1.37.96,1,2.01,1.95,3.15,2.86,1.14.91,2.35,1.65,3.63,2.21s2.59.84,3.93.84c3.95,0,7.05-1.41,9.31-4.22,2.26-2.82,3.38-6.67,3.38-11.56,0-3.69-.67-6.73-2.02-9.13-1.34-2.4-3.14-4.37-5.39-5.9-2.18-1.49-4.33-2.76-6.44-3.82-2.12-1.06-4.18-2.27-6.21-3.63-3.07-2.07-5.47-4.99-7.22-8.76-1.75-3.77-2.62-8.33-2.62-13.67,0-4.8.82-9.08,2.45-12.83,1.63-3.75,3.84-6.71,6.63-8.89,2.79-2.18,5.9-3.26,9.35-3.26,2.08,0,4.06.21,5.95.62,1.88.41,3.68.93,5.39,1.55,1.71.62,3.34,1.24,4.88,1.86v22.8h-4.45l-1.52-12.18c-.08-.58-.3-1.15-.68-1.71s-.72-1-1.03-1.34c-.58-.7-1.3-1.36-2.14-1.96-.85-.6-1.8-1.09-2.83-1.46-1.04-.37-2.16-.56-3.35-.56-3.59,0-6.39,1.24-8.38,3.73-1.99,2.48-2.98,5.53-2.98,9.13,0,3.23.54,6.25,1.62,9.04s3.15,5.13,6.21,6.99c2.02,1.2,4.01,2.34,5.97,3.41,1.95,1.08,4.07,2.4,6.38,3.98,1.7,1.16,3.32,2.67,4.88,4.53s2.84,4.25,3.84,7.17c1,2.92,1.5,6.55,1.5,10.9s-.72,8.81-2.17,12.89c-1.44,4.08-3.72,7.4-6.84,9.97s-7.19,3.85-12.24,3.85c-1.75,0-3.59-.29-5.55-.87s-3.94-1.31-5.97-2.18c-2.03-.87-4.03-1.74-6-2.61Z"/>
    <path class="cls-1" d="M813.51,489.26v-4.66l6.27-3.05c.46-.2.82-.54,1.08-1.02.26-.48.4-1.17.4-2.08v-70.83h-12.54c-.4,0-.76.21-1.06.62s-.5.99-.57,1.74l-1.52,13.36h-4.45v-23.17h48.26v23.17h-4.45l-1.52-13.36c-.1-.83-.29-1.43-.57-1.8-.28-.37-.62-.56-1.02-.56h-12.58v70.83c0,.91.15,1.6.44,2.08.29.48.64.82,1.04,1.02l6.27,3.05v4.66h-23.49Z"/>
    <path class="cls-1" d="M856.22,489.26v-4.66l5.85-3.05c.43-.2.78-.54,1.05-1.02.26-.48.4-1.17.4-2.08v-67.6c0-.87-.14-1.53-.42-1.99s-.62-.78-1.03-.99l-5.85-3.17v-4.53h22.27c4.15,0,7.55.66,10.17,1.99,2.62,1.33,4.65,3.09,6.08,5.28s2.42,4.62,2.96,7.27.82,5.32.82,8.01c0,4.85-.66,9-1.98,12.46s-2.95,6.2-4.9,8.23c-1.95,2.03-3.89,3.4-5.81,4.1l-6.15,4.1-8.74-2.92.34-6.65c.23.12.77.26,1.64.4.86.14,1.78.26,2.76.34.97.08,1.74.12,2.3.12,2.74,0,4.99-.82,6.77-2.46,1.77-1.64,3.1-3.8,3.97-6.49.87-2.69,1.31-5.57,1.31-8.64,0-6.21-1.09-10.72-3.27-13.51-2.18-2.8-5.37-4.19-9.58-4.19h-5.66v70.83c0,.91.14,1.6.42,2.08.28.48.62.82,1.02,1.02l6.01,3.05v4.66h-22.73ZM909.23,489.26h-9.2c-1.7,0-2.96-.24-3.8-.72-.84-.48-1.54-1.29-2.13-2.45s-1.33-2.78-2.24-4.85l-13.64-30.75,7.71-3.91,14.32,31.06c.28.66.73,1.46,1.35,2.39.62.93,1.21,1.52,1.77,1.77l5.85,2.8v4.66Z"/>
    <path class="cls-1" d="M939.21,491.37c-4.63,0-8.51-1.25-11.61-3.76-3.1-2.5-5.44-5.75-7.01-9.75-1.57-3.99-2.36-8.23-2.36-12.7v-54.3c0-.87-.14-1.52-.42-1.96-.28-.44-.64-.78-1.1-1.02l-5.78-3.17v-4.53h22.57v4.53l-5.81,3.17c-.4.21-.75.55-1.03,1.02-.28.48-.42,1.13-.42,1.96v47.96c0,2.28.17,4.77.51,7.49.34,2.71,1,5.29,1.98,7.73s2.38,4.44,4.22,5.99,4.24,2.33,7.2,2.33,5.4-.8,7.31-2.39c1.91-1.6,3.42-3.61,4.52-6.06,1.1-2.44,1.88-5,2.32-7.67.44-2.67.66-5.08.66-7.24v-47.84c0-.87-.14-1.51-.42-1.93-.28-.41-.61-.72-.99-.93l-5.81-3.6v-4.53h19.61v4.53l-5.81,3.6c-.41.25-.75.58-1.03,1-.28.42-.42,1.04-.42,1.86v51.26c0,5.22-.69,9.67-2.07,13.36-1.38,3.69-3.15,6.67-5.3,8.95-2.15,2.28-4.43,3.95-6.84,5.03-2.41,1.08-4.64,1.62-6.69,1.62Z"/>
    <path class="cls-1" d="M1019.27,469.38h1.94v8.26c-1.47,1.99-3.23,4.03-5.28,6.12s-4.31,3.85-6.77,5.28c-2.46,1.43-5.04,2.14-7.75,2.14-5.4,0-10.12-1.82-14.16-5.44s-7.17-8.89-9.41-15.81c-2.23-6.91-3.34-15.26-3.34-25.04s1.17-17.66,3.51-24.66c2.34-7,5.55-12.41,9.63-16.24,4.08-3.83,8.71-5.75,13.91-5.75,1.88,0,3.95.26,6.23.78,2.28.52,4.5,1.13,6.67,1.83s3.98,1.37,5.45,1.99v22.74h-4.44l-1.48-12.73c-.08-.66-.3-1.22-.68-1.68s-.78-.85-1.22-1.18c-1.6-1.32-3.32-2.35-5.17-3.08-1.85-.72-3.86-1.09-6.04-1.09-5.19,0-9.43,2.99-12.69,8.98-3.27,5.99-4.9,15.11-4.9,27.37,0,12.96,1.75,22.75,5.24,29.36,3.5,6.61,8.55,9.91,15.16,9.91,2.2,0,4.18-.56,5.93-1.68,1.75-1.12,3.4-2.59,4.94-4.41,1.54-1.82,3.12-3.81,4.71-5.96Z"/>
    <path class="cls-1" d="M1039.71,489.26v-4.66l6.27-3.05c.46-.2.82-.54,1.08-1.02.26-.48.4-1.17.4-2.08v-70.83h-12.54c-.4,0-.76.21-1.06.62s-.5.99-.57,1.74l-1.52,13.36h-4.45v-23.17h48.26v23.17h-4.45l-1.52-13.36c-.1-.83-.29-1.43-.57-1.8-.28-.37-.62-.56-1.02-.56h-12.58v70.83c0,.91.15,1.6.44,2.08.29.48.64.82,1.04,1.02l6.27,3.05v4.66h-23.49Z"/>
    <path class="cls-1" d="M1109.59,491.37c-4.63,0-8.51-1.25-11.61-3.76-3.1-2.5-5.44-5.75-7.01-9.75-1.57-3.99-2.36-8.23-2.36-12.7v-54.3c0-.87-.14-1.52-.42-1.96s-.65-.78-1.1-1.02l-5.77-3.17v-4.53h22.57v4.53l-5.81,3.17c-.41.21-.75.55-1.03,1.02s-.42,1.13-.42,1.96v47.96c0,2.28.17,4.77.52,7.49.34,2.71,1,5.29,1.98,7.73s2.38,4.44,4.22,5.99c1.84,1.55,4.23,2.33,7.2,2.33s5.4-.8,7.32-2.39c1.91-1.6,3.42-3.61,4.52-6.06,1.1-2.44,1.88-5,2.32-7.67s.66-5.08.66-7.24v-47.84c0-.87-.14-1.51-.42-1.93-.28-.41-.61-.72-.99-.93l-5.81-3.6v-4.53h19.61v4.53l-5.81,3.6c-.4.25-.75.58-1.02,1-.28.42-.42,1.04-.42,1.86v51.26c0,5.22-.69,9.67-2.07,13.36-1.38,3.69-3.15,6.67-5.3,8.95-2.16,2.28-4.43,3.95-6.84,5.03-2.41,1.08-4.63,1.62-6.69,1.62Z"/>
    <path class="cls-1" d="M1145.12,489.26v-4.66l5.85-3.05c.43-.2.78-.54,1.04-1.02.27-.48.4-1.17.4-2.08v-67.6c0-.87-.14-1.53-.42-1.99-.28-.46-.62-.78-1.02-.99l-5.85-3.17v-4.53h22.27c4.15,0,7.54.66,10.17,1.99,2.62,1.33,4.65,3.09,6.08,5.28s2.42,4.62,2.97,7.27c.54,2.65.82,5.32.82,8.01,0,4.85-.66,9-1.98,12.46-1.32,3.46-2.95,6.2-4.9,8.23-1.95,2.03-3.89,3.4-5.81,4.1l-6.15,4.1-8.74-2.92.34-6.65c.23.12.77.26,1.63.4.86.14,1.78.26,2.76.34s1.74.12,2.3.12c2.74,0,4.99-.82,6.76-2.46,1.78-1.64,3.1-3.8,3.97-6.49.88-2.69,1.31-5.57,1.31-8.64,0-6.21-1.09-10.72-3.27-13.51s-5.37-4.19-9.58-4.19h-5.66v70.83c0,.91.14,1.6.42,2.08.28.48.62.82,1.03,1.02l6,3.05v4.66h-22.72ZM1198.13,489.26h-9.2c-1.7,0-2.96-.24-3.8-.72-.84-.48-1.55-1.29-2.13-2.45-.58-1.16-1.33-2.78-2.24-4.85l-13.64-30.75,7.71-3.91,14.33,31.06c.28.66.73,1.46,1.35,2.39s1.21,1.52,1.77,1.77l5.85,2.8v4.66Z"/>
    <path class="cls-1" d="M1201.7,489.26v-4.66l5.85-3.05c.43-.2.78-.54,1.04-1.02.27-.48.4-1.17.4-2.08v-67.6c0-.87-.14-1.53-.42-1.99-.28-.46-.62-.78-1.02-.99l-5.85-3.17v-4.53h42.29v22.12h-4.48l-1.48-12.24c-.1-.74-.29-1.31-.57-1.71-.28-.39-.63-.59-1.06-.59h-19.41v31.37h11.66c.5,0,.88-.18,1.12-.53s.41-.92.51-1.71l1.37-9.82h3.65v31.75h-3.65l-1.37-9.75c-.1-.78-.27-1.38-.51-1.77-.24-.39-.62-.59-1.12-.59h-11.66v34.98h22.38c.38,0,.71-.21,1-.62.29-.41.48-.99.55-1.74l1.52-13.67h4.45v23.61h-45.18Z"/>
    <path class="cls-1" d="M1256.38,485.72l-.23-23.79h4.48l1.6,12.86c.08.58.31,1.16.7,1.74.39.58.73,1.04,1.01,1.37.96,1,2.01,1.95,3.15,2.86,1.14.91,2.35,1.65,3.63,2.21s2.59.84,3.93.84c3.95,0,7.05-1.41,9.31-4.22,2.26-2.82,3.38-6.67,3.38-11.56,0-3.69-.67-6.73-2.02-9.13-1.34-2.4-3.14-4.37-5.39-5.9-2.18-1.49-4.33-2.76-6.44-3.82-2.12-1.06-4.18-2.27-6.21-3.63-3.07-2.07-5.47-4.99-7.22-8.76-1.75-3.77-2.62-8.33-2.62-13.67,0-4.8.82-9.08,2.45-12.83,1.63-3.75,3.84-6.71,6.63-8.89s5.9-3.26,9.35-3.26c2.08,0,4.06.21,5.95.62,1.88.41,3.68.93,5.39,1.55,1.71.62,3.34,1.24,4.88,1.86v22.8h-4.45l-1.52-12.18c-.08-.58-.3-1.15-.68-1.71s-.72-1-1.03-1.34c-.58-.7-1.3-1.36-2.14-1.96-.85-.6-1.8-1.09-2.83-1.46-1.04-.37-2.16-.56-3.35-.56-3.59,0-6.39,1.24-8.38,3.73-1.99,2.48-2.98,5.53-2.98,9.13,0,3.23.54,6.25,1.62,9.04,1.08,2.8,3.15,5.13,6.21,6.99,2.02,1.2,4.01,2.34,5.97,3.41,1.95,1.08,4.07,2.4,6.38,3.98,1.7,1.16,3.32,2.67,4.88,4.53s2.84,4.25,3.84,7.17c1,2.92,1.5,6.55,1.5,10.9s-.72,8.81-2.17,12.89c-1.44,4.08-3.72,7.4-6.84,9.97s-7.19,3.85-12.24,3.85c-1.75,0-3.59-.29-5.55-.87s-3.94-1.31-5.97-2.18c-2.03-.87-4.03-1.74-6-2.61Z"/>
  </g>
  <g>
    <rect x="1308.99" y="438.67" width="88.54" height="8.37"/>
    <rect x="213.31" y="438.67" width="88.54" height="8.37"/>
  </g>
  <polygon class="cls-2" points="348.1 16.57 346.35 15.88 177.64 123.11 177.64 91.02 155.58 91.02 155.58 137.13 148.85 141.41 148.85 114.25 127.24 114.25 127.24 155.15 23.49 221.09 101.05 221.09 127.24 204.62 127.24 416.58 148.85 416.58 148.85 191.01 155.58 186.78 155.58 416.58 177.64 416.58 177.64 172.9 352.8 62.68 772.26 221.2 870.89 221.2 348.1 16.57"/>
</svg>